<?xml version="1.0" standalone="no"?><svg xmlns="http://www.w3.org/2000/svg" viewBox="0 0 1440 320"><path fill="#3f37c9" fill-opacity="1" d="M0,96L24,85.3C48,75,96,53,144,69.3C192,85,240,139,288,149.3C336,160,384,128,432,117.3C480,107,528,117,576,106.7C624,96,672,64,720,90.7C768,117,816,203,864,202.7C912,203,960,117,1008,101.3C1056,85,1104,139,1152,181.3C1200,224,1248,256,1296,234.7C1344,213,1392,139,1416,101.3L1440,64L1440,0L1416,0C1392,0,1344,0,1296,0C1248,0,1200,0,1152,0C1104,0,1056,0,1008,0C960,0,912,0,864,0C816,0,768,0,720,0C672,0,624,0,576,0C528,0,480,0,432,0C384,0,336,0,288,0C240,0,192,0,144,0C96,0,48,0,24,0L0,0Z"></path></svg>