<?xml version="1.0" standalone="no"?><svg xmlns="http://www.w3.org/2000/svg" viewBox="0 0 1440 320"><path fill="#3f37c9" fill-opacity="1" d="M0,96L24,85.3C48,75,96,53,144,69.3C192,85,240,139,288,149.3C336,160,384,128,432,117.3C480,107,528,117,576,106.7C624,96,672,64,720,90.7C768,117,816,203,864,202.7C912,203,960,117,1008,101.3C1056,85,1104,139,1152,181.3C1200,224,1248,256,1296,234.7C1344,213,1392,139,1416,101.3L1440,64L1440,320L1416,320C1392,320,1344,320,1296,320C1248,320,1200,320,1152,320C1104,320,1056,320,1008,320C960,320,912,320,864,320C816,320,768,320,720,320C672,320,624,320,576,320C528,320,480,320,432,320C384,320,336,320,288,320C240,320,192,320,144,320C96,320,48,320,24,320L0,320Z"></path></svg>